<!DOCTYPE svg PUBLIC "-//W3C//DTD SVG 20010904//EN" "http://www.w3.org/TR/2001/REC-SVG-20010904/DTD/svg10.dtd">
<svg version="1.0" xmlns="http://www.w3.org/2000/svg" width="506px" height="474px" viewBox="0 0 5060 4740" preserveAspectRatio="xMidYMid meet">
<g id="layer1" fill="#358fd2" stroke="none">
 <path d="M2400 3961 c0 -429 4 -782 9 -785 14 -9 30 15 190 274 84 135 156 246 161 248 5 2 403 -159 884 -358 482 -199 883 -360 891 -356 13 5 15 61 15 424 0 324 -3 422 -12 429 -16 12 -1977 867 -2037 888 -24 8 -56 15 -72 15 l-29 0 0 -779z"/>
 <path d="M1487 4214 l-717 -506 2 -415 c2 -290 6 -417 14 -420 6 -2 100 68 208 156 l198 159 126 -43 c70 -23 302 -102 515 -175 213 -72 394 -129 402 -126 13 5 15 131 15 941 l0 935 -22 0 c-14 0 -308 -201 -741 -506z"/>
 <path d="M2762 3403 c-332 -561 -364 -618 -355 -632 5 -8 506 -203 1112 -433 902 -343 1106 -417 1116 -406 16 18 179 788 169 798 -8 8 -1887 823 -1925 835 -14 5 -38 -28 -117 -162z"/>
 <path d="M610 2571 c-365 -302 -606 -507 -608 -519 -2 -15 65 -77 286 -260 160 -132 299 -246 309 -253 18 -11 90 48 719 576 384 323 708 596 719 606 17 17 18 21 5 33 -15 13 -795 316 -816 316 -5 0 -282 -225 -614 -499z"/>
 <path d="M2000 2569 c-124 -104 -225 -194 -225 -201 0 -6 7 -15 15 -20 41 -24 906 -368 924 -367 34 1 631 302 631 318 0 9 -188 91 -545 237 -300 123 -552 223 -560 223 -8 0 -116 -85 -240 -190z"/>
 <path d="M1717 2303 c-4 -3 -7 -82 -7 -173 0 -122 3 -170 13 -178 27 -21 887 -383 904 -380 16 3 18 18 21 175 2 170 2 172 -20 186 -37 23 -872 377 -889 377 -9 0 -19 -3 -22 -7z"/>
 <path d="M1196 1890 l-426 -371 0 -95 c0 -69 4 -96 13 -100 8 -3 204 132 438 299 l424 303 0 164 c0 114 -3 164 -12 167 -6 2 -203 -163 -437 -367z"/>
 <path d="M3140 2115 c-179 -79 -333 -149 -342 -154 -16 -10 -18 -31 -18 -196 0 -158 2 -187 15 -192 15 -5 623 233 673 264 22 14 22 15 20 215 -2 123 -7 202 -13 204 -5 2 -156 -62 -335 -141z"/>
 <path d="M3547 2254 c-4 -4 -7 -96 -7 -205 0 -195 0 -199 23 -213 12 -8 221 -118 464 -244 309 -160 445 -226 452 -219 7 7 11 97 11 254 0 228 -1 243 -19 252 -24 13 -880 372 -901 378 -9 2 -19 1 -23 -3z"/>
 <path d="M1250 1544 c-256 -184 -469 -340 -475 -345 -6 -6 -4 -14 5 -22 16 -15 767 -307 787 -307 11 0 973 609 998 631 6 6 4 14 -5 22 -12 11 -763 328 -830 351 -9 3 -199 -127 -480 -330z"/>
 <path d="M3150 1644 c-190 -80 -352 -152 -360 -160 -13 -12 -13 -16 0 -28 8 -7 233 -124 498 -260 311 -159 490 -245 500 -241 52 20 652 380 652 391 0 17 0 17 -495 251 -225 106 -419 193 -430 193 -11 0 -175 -66 -365 -146z"/>
 <path d="M4627 1533 c-4 -3 -7 -53 -7 -109 l0 -103 -435 -262 -435 -262 0 -179 c0 -143 3 -180 14 -184 7 -3 302 139 655 315 617 309 641 322 641 349 0 23 -37 64 -208 235 -114 114 -210 207 -213 207 -3 0 -9 -3 -12 -7z"/>
 <path d="M656 1413 c-7 -16 -58 -124 -111 -242 -68 -148 -95 -218 -89 -228 8 -13 2135 -880 2268 -925 37 -12 62 -16 68 -10 6 6 -54 41 -164 93 -95 46 -303 147 -463 225 l-290 140 -3 237 c-2 196 -5 239 -17 243 -8 3 -72 -32 -146 -80 -72 -47 -137 -86 -142 -86 -6 0 -199 78 -428 172 l-417 173 -7 140 c-7 135 -15 175 -35 175 -5 0 -16 -12 -24 -27z"/>
 <path d="M2289 1242 c-174 -109 -324 -204 -333 -211 -14 -12 -16 -39 -14 -220 3 -185 5 -206 20 -209 17 -3 635 325 671 356 16 14 17 36 15 246 -3 223 -4 231 -23 233 -11 1 -160 -86 -336 -195z"/>
 <path d="M2747 1393 c-4 -3 -7 -102 -7 -219 0 -210 0 -214 23 -228 62 -40 840 -407 852 -402 12 4 15 38 15 195 l0 190 -27 19 c-42 28 -828 452 -839 452 -6 0 -14 -3 -17 -7z"/>
 <path d="M2350 717 c-198 -114 -335 -198 -335 -207 0 -10 135 -74 395 -187 217 -95 401 -173 409 -173 21 0 734 300 751 316 9 9 11 17 5 23 -9 8 -883 422 -888 420 -1 0 -153 -87 -337 -192z"/>
 </g>

</svg>