<!DOCTYPE svg PUBLIC "-//W3C//DTD SVG 20010904//EN" "http://www.w3.org/TR/2001/REC-SVG-20010904/DTD/svg10.dtd">
<svg version="1.0" xmlns="http://www.w3.org/2000/svg" width="506px" height="474px" viewBox="0 0 5060 4740" preserveAspectRatio="xMidYMid meet">
<g id="layer1" fill="#ffffff" stroke="none">
 <path d="M2400 3961 c0 -473 4 -782 9 -786 14 -8 39 29 205 297 l147 237 42 -18 c489 -208 1721 -712 1732 -707 13 5 15 61 15 424 0 324 -3 422 -12 430 -15 11 -1994 873 -2047 891 -19 6 -47 11 -62 11 l-29 0 0 -779z"/>
 <path d="M1492 4219 l-722 -511 2 -415 c2 -267 7 -418 13 -420 6 -1 99 69 209 156 l199 159 351 -119 c193 -66 424 -145 513 -176 89 -30 169 -53 178 -50 13 6 15 109 15 947 0 889 -1 940 -17 940 -10 0 -343 -230 -741 -511z"/>
 <path d="M2762 3403 c-334 -565 -364 -618 -355 -632 5 -7 505 -202 1112 -433 894 -339 1106 -417 1116 -406 19 21 180 787 168 799 -9 9 -1888 825 -1925 836 -12 4 -40 -35 -116 -164z"/>
 <path d="M609 2571 c-357 -296 -605 -508 -607 -519 -2 -15 68 -78 288 -261 160 -132 299 -246 309 -253 16 -10 106 63 717 577 384 323 708 596 719 606 17 17 18 21 5 33 -15 14 -793 316 -815 316 -6 0 -284 -225 -616 -499z"/>
 <path d="M2000 2570 c-124 -104 -226 -194 -228 -199 -2 -5 7 -15 19 -21 57 -31 905 -370 923 -369 34 1 631 302 631 318 0 10 -183 89 -545 237 -300 123 -552 223 -560 223 -8 0 -116 -85 -240 -189z"/>
 <path d="M1717 2303 c-4 -3 -7 -82 -7 -175 0 -150 2 -169 18 -179 10 -6 216 -96 457 -199 311 -133 444 -185 453 -177 18 14 17 340 -1 356 -20 16 -879 381 -897 381 -9 0 -20 -3 -23 -7z"/>
 <path d="M1198 1892 l-423 -368 0 -99 c0 -61 4 -100 11 -102 6 -2 201 133 435 300 l424 303 0 164 c0 115 -3 164 -12 167 -6 2 -202 -162 -435 -365z"/>
 <path d="M3140 2115 c-179 -79 -333 -148 -342 -154 -16 -10 -18 -31 -18 -196 0 -158 2 -187 15 -192 13 -4 455 167 653 253 l52 23 -2 203 c-3 171 -5 203 -18 205 -8 1 -161 -63 -340 -142z"/>
 <path d="M3547 2253 c-4 -3 -7 -95 -7 -203 0 -146 3 -200 13 -208 35 -28 909 -473 924 -470 17 3 18 23 18 252 l0 248 -464 194 c-255 107 -467 194 -471 194 -4 0 -10 -3 -13 -7z"/>
 <path d="M1250 1544 c-256 -184 -469 -339 -475 -345 -5 -6 -5 -13 2 -20 13 -13 771 -309 790 -309 12 0 971 607 998 631 6 6 4 14 -5 23 -12 10 -832 357 -842 356 -2 0 -212 -151 -468 -336z"/>
 <path d="M3160 1649 c-195 -83 -361 -157 -369 -164 -7 -7 -11 -18 -7 -23 11 -19 990 -513 1004 -507 45 17 651 378 656 390 4 10 -5 20 -27 29 -18 8 -223 105 -457 216 -234 111 -429 203 -435 205 -5 2 -170 -64 -365 -146z"/>
 <path d="M4625 1528 c-3 -7 -6 -58 -7 -113 l-3 -99 -432 -259 -433 -260 0 -179 c0 -143 3 -180 14 -184 7 -3 302 139 655 315 616 308 641 322 641 349 0 22 -38 65 -208 235 -114 114 -211 207 -215 207 -4 0 -10 -6 -12 -12z"/>
 <path d="M2290 1242 l-335 -208 -3 -212 c-2 -180 0 -213 12 -218 9 -3 160 73 351 176 l335 182 -2 241 c-2 149 -7 242 -13 243 -5 2 -161 -90 -345 -204z"/>
 <path d="M656 1413 c-7 -16 -58 -124 -111 -242 -68 -149 -95 -218 -89 -228 8 -13 2038 -841 2239 -914 85 -31 109 -35 103 -19 -2 6 -210 111 -463 233 l-460 223 -3 237 c-2 196 -5 239 -17 243 -8 3 -72 -32 -146 -80 -72 -47 -136 -86 -142 -86 -6 0 -198 77 -428 172 l-417 172 -7 141 c-7 135 -15 175 -35 175 -5 0 -16 -12 -24 -27z"/>
 <path d="M2747 1393 c-4 -3 -7 -102 -7 -219 0 -210 0 -214 23 -228 59 -39 841 -407 853 -402 11 4 14 41 14 194 0 168 -2 191 -17 204 -24 20 -836 458 -849 458 -6 0 -14 -3 -17 -7z"/>
 <path d="M2350 717 c-198 -114 -335 -198 -335 -207 0 -10 136 -74 395 -187 217 -95 401 -173 409 -173 21 0 734 299 751 315 9 10 11 18 5 24 -9 8 -884 422 -888 420 -1 0 -153 -87 -337 -192z"/>
 </g>

</svg>